# xmcd
#
# Track frame offsets: 
#        150
#        18868
#        36646
#        55412
#        69495
#        81242
#        99945
#        123276
#        140965
#        165777
#        182210
#
# Disc length: 2677 seconds
#
# Revision: 0
# Processed by: cddbd v1.5.2PL0 Copyright (c) Steve Scherf et al.
# Submitted via: ExactAudioCopyFreeDBPlugin 1.0
#
DISCID=930a730b
DTITLE=Nathaniel Rateliff - Falling Faster Than You Can Run
DYEAR=2013
DGENRE=Alternative
TTITLE0=Still Trying
TTITLE1=I Am
TTITLE2=Don't Get Too Close
TTITLE3=Laborman
TTITLE4=How to Win
TTITLE5=Nothing to Show For
TTITLE6=Right On
TTITLE7=Three Fingers In
TTITLE8=Forgetting is Believing
TTITLE9=When Do You See
TTITLE10=Falling Faster Than You Can Run
EXTD=
EXTT0=
EXTT1=
EXTT2=
EXTT3=
EXTT4=
EXTT5=
EXTT6=
EXTT7=
EXTT8=
EXTT9=
EXTT10=
PLAYORDER=
